<?xml version="1.0" encoding="UTF-8"?>
<svg width="66px" height="41px" viewBox="0 0 66 41" version="1.1" xmlns="http://www.w3.org/2000/svg" xmlns:xlink="http://www.w3.org/1999/xlink">
    <!-- Generator: Sketch 47.1 (45422) - http://www.bohemiancoding.com/sketch -->
    <title>Group 6 Copy</title>
    <desc>Created with Sketch.</desc>
    <defs></defs>
    <g id="Page-1" stroke="none" stroke-width="1" fill="none" fill-rule="evenodd">
        <g id="Atoms" transform="translate(-181.000000, -1713.000000)" fill="#052951">
            <g id="Group-6-Copy" transform="translate(181.000000, 1713.000000)">
                <g id="Group-5">
                    <path d="M58.8822753,34.4894906 L65.9200206,34.4894906 L65.9200206,35.8883589 L65.9200206,35.8883589 C65.9200206,38.6497827 63.6814444,40.8883589 60.9200206,40.8883589 L5.340939,40.8883589 L5.340939,40.8883589 C2.57951525,40.8883589 0.340938996,38.6497827 0.340938996,35.8883589 L0.340938996,34.4894906 L7.29872937,34.4894906 L7.29872937,2.41553637 L7.29872937,2.41553637 C7.29872937,1.31096687 8.19415987,0.415536368 9.29872937,0.415536368 L56.8822753,0.415536368 C57.9868448,0.415536368 58.8822753,1.31096687 58.8822753,2.41553637 L58.8822753,34.4894906 Z M9.77794344,4.89472466 L9.77794344,34.4894906 L56.56302,34.4894906 L56.56302,4.89472466 L9.77794344,4.89472466 Z" id="Combined-Shape"></path>
                </g>
                <rect id="Rectangle-6" transform="translate(18.000000, 14.000000) rotate(-315.000000) translate(-18.000000, -14.000000) " x="17" y="7" width="2" height="14" rx="1"></rect>
                <rect id="Rectangle-6-Copy" transform="translate(15.000000, 10.500000) rotate(-315.000000) translate(-15.000000, -10.500000) " x="14" y="7" width="2" height="7" rx="1"></rect>
            </g>
        </g>
    </g>
</svg>
