<?xml version="1.0" encoding="utf-8"?>
<!-- Generator: Adobe Illustrator 22.0.1, SVG Export Plug-In . SVG Version: 6.00 Build 0)  -->
<svg version="1.1" id="Layer_1" xmlns="http://www.w3.org/2000/svg" xmlns:xlink="http://www.w3.org/1999/xlink" x="0px" y="0px"
	 viewBox="0 0 66 41" style="enable-background:new 0 0 66 41;" xml:space="preserve">
<style type="text/css">
	.st0{fill:#052951;}
</style>
<title>Group 6 Copy</title>
<desc>Created with Sketch.</desc>
<g id="Page-1">
	<g id="Atoms" transform="translate(-181.000000, -1713.000000)">
		<g id="Group-6-Copy" transform="translate(181.000000, 1713.000000)">
			<g id="Group-5">
				<path id="Combined-Shape" class="st0" d="M58.9,34.5h7v1.4l0,0c0,2.8-2.2,5-5,5H5.3l0,0c-2.8,0-5-2.2-5-5v-1.4h7V2.4l0,0
					c0-1.1,0.9-2,2-2h47.6c1.1,0,2,0.9,2,2V34.5z M9.8,4.9v29.6h46.8V4.9H9.8z"/>
			</g>
			<path id="Rectangle-6" class="st0" d="M22.9,9.1L22.9,9.1c0.4,0.4,0.4,1,0,1.4l-8.5,8.5c-0.4,0.4-1,0.4-1.4,0l0,0
				c-0.4-0.4-0.4-1,0-1.4l8.5-8.5C21.9,8.7,22.6,8.7,22.9,9.1z"/>
			<path id="Rectangle-6-Copy" class="st0" d="M17.5,8L17.5,8c0.4,0.4,0.4,1,0,1.4L13.9,13c-0.4,0.4-1,0.4-1.4,0l0,0
				c-0.4-0.4-0.4-1,0-1.4L16.1,8C16.5,7.6,17.1,7.6,17.5,8z"/>
		</g>
	</g>
</g>
</svg>
