<?xml version="1.0" encoding="UTF-8"?>
<svg width="41px" height="27px" viewBox="0 0 41 27" version="1.1" xmlns="http://www.w3.org/2000/svg" xmlns:xlink="http://www.w3.org/1999/xlink">
    <!-- Generator: Sketch 47.1 (45422) - http://www.bohemiancoding.com/sketch -->
    <title>bike_icon</title>
    <desc>Created with Sketch.</desc>
    <defs></defs>
    <g id="Mobile" stroke="none" stroke-width="1" fill="none" fill-rule="evenodd">
        <g id="iPhone-8-Copy-4" transform="translate(-210.000000, -290.000000)" fill-rule="nonzero" fill="#052951">
            <g id="bike_icon" transform="translate(210.000000, 290.000000)">
                <path d="M22,20.2 L19.5,20.2 C19.1,20.2 18.7,20.5 18.7,21 C18.7,21.5 19,21.8 19.5,21.8 L22,21.8 C22.4,21.8 22.8,21.5 22.8,21 C22.8,20.5 22.4,20.2 22,20.2 Z" id="Shape"></path>
                <path d="M32.8,10.5 C31.7,10.5 30.6,10.7 29.6,11.2 C29.4,10.3 29.2,9.4 29.1,8.5 C29.5,8.8 29.9,9 30.5,9 C31.6,9 31.6,5 30.5,5 C29.8,5 29.2,5.4 28.8,5.9 C28.8,5.8 28.8,5.6 28.8,5.5 L28.7,5 C28.4,2.6 27,-0.3 21.8,0.3 C21.4,0.3 21.1,0.7 21.1,1.1 C21.1,1.5 21.5,1.8 21.9,1.8 C26.2,1.4 26.9,3.5 27.1,5.2 L27.2,5.7 C27.2,5.9 27.2,6 27.3,6.2 L15.3,6.2 L14.8,5.2 L15.3,5.2 C15.9,5.2 16.4,4.7 16.4,4.1 C16.4,3.5 15.9,3 15.3,3 L12.1,3 C11.5,3 11,3.5 11,4.1 C11,4.7 11.5,5.2 12.1,5.2 L13.1,5.2 C13.1,5.2 13.1,5.3 13.1,5.3 L13.9,7 L11.8,11.1 C10.9,10.7 9.8,10.5 8.8,10.5 C4.4,10.5 0.9,14 0.9,18.3 C0.9,22.6 4.5,26.1 8.8,26.1 C12.7,26.1 15.9,23.3 16.6,19.7 L19.6,19.7 C19.8,19.9 20.1,19.9 20.4,19.9 C21.2,19.9 21.9,19.2 21.9,18.4 C21.9,18.2 21.9,18 21.8,17.8 L27.6,9 C27.9,10 28,11 28.3,12 C26.3,13.4 24.9,15.7 24.9,18.3 C24.9,22.6 28.5,26.1 32.8,26.1 C37.2,26.1 40.7,22.6 40.7,18.3 C40.7,14 37.2,10.5 32.8,10.5 Z M14.9,8.8 L19.3,17.7 C19.2,17.9 19.1,18.1 19.1,18.3 L16.9,18.3 C16.9,15.6 15.5,13.3 13.3,11.9 L14.9,8.8 Z M14.3,18.2 L10,18.2 L12.1,14.1 C13.4,15.1 14.3,16.6 14.3,18.2 Z M8.9,23.6 C5.9,23.6 3.5,21.2 3.5,18.3 C3.5,15.4 5.9,13 8.9,13 C9.6,13 10.2,13.1 10.8,13.3 L8.1,18.5 C8,18.7 8,19 8.1,19.2 C8.2,19.4 8.5,19.6 8.7,19.6 L14.1,19.6 C13.5,22 11.4,23.6 8.9,23.6 Z M20.7,17 C20.6,17 20.6,17 20.7,17 L16,7.8 L26.8,7.8 L20.7,17 Z M32.8,23.6 C29.8,23.6 27.4,21.2 27.4,18.3 C27.4,16.8 28,15.5 29,14.5 C29.7,16.4 30.7,18.1 32.3,19.5 C32.4,19.6 32.6,19.7 32.8,19.7 C33,19.7 33.2,19.6 33.3,19.5 C33.6,19.2 33.6,18.7 33.3,18.4 C31.9,17.1 30.9,15.4 30.3,13.6 C31.1,13.2 31.9,13 32.8,13 C35.8,13 38.2,15.4 38.2,18.3 C38.2,21.2 35.8,23.6 32.8,23.6 Z" id="Shape"></path>
            </g>
        </g>
    </g>
</svg>
