<?xml version="1.0" encoding="utf-8"?>
<!-- Generator: Adobe Illustrator 22.0.1, SVG Export Plug-In . SVG Version: 6.00 Build 0)  -->
<svg version="1.1" id="Layer_1" xmlns="http://www.w3.org/2000/svg" xmlns:xlink="http://www.w3.org/1999/xlink" x="0px" y="0px"
	 viewBox="0 0 41 27" style="enable-background:new 0 0 41 27;" xml:space="preserve">
<style type="text/css">
	.st0{fill:#052951;}
</style>
<title>bike_icon</title>
<desc>Created with Sketch.</desc>
<g id="Mobile">
	<g id="iPhone-8-Copy-4" transform="translate(-210.000000, -290.000000)">
		<g id="bike_icon" transform="translate(210.000000, 290.000000)">
			<path id="Shape" class="st0" d="M22,20.2h-2.5c-0.4,0-0.8,0.3-0.8,0.8s0.3,0.8,0.8,0.8H22c0.4,0,0.8-0.3,0.8-0.8
				S22.4,20.2,22,20.2z"/>
			<path id="Shape_1_" class="st0" d="M32.8,10.5c-1.1,0-2.2,0.2-3.2,0.7c-0.2-0.9-0.4-1.8-0.5-2.7C29.5,8.8,29.9,9,30.5,9
				c1.1,0,1.1-4,0-4c-0.7,0-1.3,0.4-1.7,0.9c0-0.1,0-0.3,0-0.4L28.7,5c-0.3-2.4-1.7-5.3-6.9-4.7c-0.4,0-0.7,0.4-0.7,0.8
				s0.4,0.7,0.8,0.7c4.3-0.4,5,1.7,5.2,3.4l0.1,0.5c0,0.2,0,0.3,0.1,0.5h-12l-0.5-1h0.5c0.6,0,1.1-0.5,1.1-1.1S15.9,3,15.3,3h-3.2
				C11.5,3,11,3.5,11,4.1s0.5,1.1,1.1,1.1h1v0.1L13.9,7l-2.1,4.1c-0.9-0.4-2-0.6-3-0.6c-4.4,0-7.9,3.5-7.9,7.8s3.6,7.8,7.9,7.8
				c3.9,0,7.1-2.8,7.8-6.4h3c0.2,0.2,0.5,0.2,0.8,0.2c0.8,0,1.5-0.7,1.5-1.5c0-0.2,0-0.4-0.1-0.6L27.6,9c0.3,1,0.4,2,0.7,3
				c-2,1.4-3.4,3.7-3.4,6.3c0,4.3,3.6,7.8,7.9,7.8c4.4,0,7.9-3.5,7.9-7.8S37.2,10.5,32.8,10.5z M14.9,8.8l4.4,8.9
				c-0.1,0.2-0.2,0.4-0.2,0.6h-2.2c0-2.7-1.4-5-3.6-6.4L14.9,8.8z M14.3,18.2H10l2.1-4.1C13.4,15.1,14.3,16.6,14.3,18.2z M8.9,23.6
				c-3,0-5.4-2.4-5.4-5.3S5.9,13,8.9,13c0.7,0,1.3,0.1,1.9,0.3l-2.7,5.2C8,18.7,8,19,8.1,19.2c0.1,0.2,0.4,0.4,0.6,0.4h5.4
				C13.5,22,11.4,23.6,8.9,23.6z M20.7,17C20.6,17,20.6,17,20.7,17L16,7.8h10.8L20.7,17z M32.8,23.6c-3,0-5.4-2.4-5.4-5.3
				c0-1.5,0.6-2.8,1.6-3.8c0.7,1.9,1.7,3.6,3.3,5c0.1,0.1,0.3,0.2,0.5,0.2s0.4-0.1,0.5-0.2c0.3-0.3,0.3-0.8,0-1.1
				c-1.4-1.3-2.4-3-3-4.8c0.8-0.4,1.6-0.6,2.5-0.6c3,0,5.4,2.4,5.4,5.3S35.8,23.6,32.8,23.6z"/>
		</g>
	</g>
</g>
</svg>
