<?xml version="1.0" encoding="UTF-8"?>
<svg width="25px" height="30px" viewBox="0 0 25 30" version="1.1" xmlns="http://www.w3.org/2000/svg" xmlns:xlink="http://www.w3.org/1999/xlink">
    <!-- Generator: Sketch 47.1 (45422) - http://www.bohemiancoding.com/sketch -->
    <title>Combined Shape</title>
    <desc>Created with Sketch.</desc>
    <defs></defs>
    <g id="Mobile" stroke="none" stroke-width="1" fill="none" fill-rule="evenodd">
        <g id="iPhone-8-Copy-4" transform="translate(-305.000000, -290.000000)" fill="#052951">
            <g id="Group" transform="translate(277.000000, 266.000000)">
                <path d="M30,24 L50.6499996,24 C51.7545691,24 52.6499996,24.8954305 52.6499996,26 L52.6499996,51.3500004 C52.6499996,52.4545699 51.7545691,53.3500004 50.6499996,53.3500004 L30,53.3500004 L30,53.3500004 C28.8954305,53.3500004 28,52.4545699 28,51.3500004 L28,26 L28,26 C28,24.8954305 28.8954305,24 30,24 L30,24 Z M29.5,27 L29.5,48.8500004 L51.1499996,48.8500004 L51.1499996,27 L29.5,27 Z M39,50.5 C38.7238576,50.5 38.5,50.7238576 38.5,51 C38.5,51.2761424 38.7238576,51.5 39,51.5 L42.5500002,51.5 C42.8261426,51.5 43.0500002,51.2761424 43.0500002,51 C43.0500002,50.7238576 42.8261426,50.5 42.5500002,50.5 L39,50.5 Z M40.625,26.1499939 C40.970178,26.1499939 41.25,25.8701719 41.25,25.5249939 C41.25,25.1798159 40.970178,24.8999939 40.625,24.8999939 C40.279822,24.8999939 40,25.1798159 40,25.5249939 C40,25.8701719 40.279822,26.1499939 40.625,26.1499939 Z" id="Combined-Shape"></path>
            </g>
        </g>
    </g>
</svg>
